<svg id="Layer_1" xmlns="http://www.w3.org/2000/svg" xmlns:xlink="http://www.w3.org/1999/xlink" viewBox="0 0 219.8 220.4"><style>.st0,.st1{fill:#576cd1;stroke:#0a0a0a;stroke-width:2.8346}.st1{clip-path:url(#SVGID_1_);fill:#fff689;stroke-linecap:round}.st2{fill:#eadfd6;stroke:#44331d;stroke-width:3}.st2,.st3,.st4,.st5{clip-path:url(#SVGID_1_)}.st3{stroke:#44331d;stroke-width:3;fill:#fff}.st4{fill:#44331d}.st5{fill:none;stroke:#44331d;stroke-width:3}</style><circle class="st0" cx="109.9" cy="110.5" r="108.5"/><defs><circle id="SVGID_3_" cx="109.9" cy="108.5" r="108.5"/></defs><clipPath id="SVGID_1_"><use xlink:href="#SVGID_3_" overflow="visible"/></clipPath><path class="st1" d="M169.4 107.6c28.9 25.3 42.8 51.6 27.7 50.4s-54.1-43.8-55.3-49.7"/><path class="st2" d="M171.8 119.6c17.1 34.4 20 64 6.4 57.1-13.6-6.9-33.3-61.1-32.2-67"/><path class="st1" d="M35.2 268.6s11-173.8 27-228.8c0 0 8.5 7.5 15.2 10.2 7.6 3 30.1-5.7 35-12 4.6-5.9 4.1-9.2 8-18 0 0 4 3 10.1 18.9 6.2 16.3 136.9 172.1 15.9 236.2C126.8 285.5 36 285 36 285"/><ellipse transform="rotate(-11.882 149.048 180.637)" class="st3" cx="149" cy="180.6" rx="30.4" ry="47.5"/><circle class="st4" cx="80.6" cy="80.3" r="5.1"/><circle class="st4" cx="121.6" cy="68.2" r="5.1"/><path class="st5" d="M98.6 87.7s-20 0-30.8 12.5m60.8-20.8s14.2-14.2 30.6-12.9m-60.6 26S87.7 93.9 82.7 104m67.7-20.6s-10.3-4-19.5 2.5"/><path class="st1" d="M83.1 145.1c15.1 35.3 16.4 65 3.3 57.4-13.2-7.6-29.9-62.8-28.4-68.7"/><path class="st5" d="M124.8 93.3c-10 6.7-14-5.2-14-5.2m.4.8s4.5 11.7-7.5 12.9m.2-18.4l8.4-3.5-1.6 7.7z"/></svg>