<svg xmlns="http://www.w3.org/2000/svg" xmlns:xlink="http://www.w3.org/1999/xlink" width="320" height="480" viewBox="0 0 320 480"><defs><path id="44yua" d="M308 0a12 12 0 0 1 12 12v456a12 12 0 0 1-12 12H12a12 12 0 0 1-12-12V42.68L42.45.23 42.23 0z"/><path id="44yub" d="M308 0a12 12 0 0 1 12 12v456a12 12 0 0 1-12 12H12a12 12 0 0 1-12-12V42.68L42.45.23 42.23 0z"/><clipPath id="44yuc"><use fill="#fff" xlink:href="#44yua"/></clipPath></defs><g><g><use fill="#fff" fill-opacity="0" stroke="#1697d9" stroke-miterlimit="50" stroke-width="8" clip-path="url(&quot;#44yuc&quot;)" xlink:href="#44yub"/></g></g></svg>